<?xml version="1.0" standalone="no"?>
<!DOCTYPE svg PUBLIC "-//W3C//DTD SVG 20010904//EN"
 "http://www.w3.org/TR/2001/REC-SVG-20010904/DTD/svg10.dtd">
<svg version="1.0" xmlns="http://www.w3.org/2000/svg"
 width="16.000000pt" height="16.000000pt" viewBox="0 0 16.000000 16.000000"
 preserveAspectRatio="xMidYMid meet">
<metadata>
Created by potrace 1.11, written by Peter Selinger 2001-2013
</metadata>
<g transform="translate(0.000000,16.000000) scale(0.003125,-0.003125)"
fill="#000000" stroke="none">
<path d="M2355 5004 c-110 -64 -218 -126 -240 -138 -22 -13 -229 -133 -460
-266 -231 -134 -451 -261 -490 -283 -38 -22 -135 -78 -215 -125 -80 -46 -167
-97 -195 -112 -27 -15 -131 -75 -230 -133 l-180 -104 0 -1283 0 -1283 125 -72
c69 -40 296 -171 505 -292 398 -230 756 -437 815 -471 41 -23 55 -31 459 -265
265 -153 307 -175 325 -165 25 13 375 215 466 268 36 21 311 180 612 354 301
174 562 325 580 336 18 11 53 31 78 44 25 13 137 78 250 144 l205 120 3 1280
2 1280 -32 20 c-18 11 -49 29 -68 40 -19 11 -118 68 -220 127 -102 59 -203
118 -225 130 -22 13 -80 46 -130 75 -49 29 -106 62 -125 73 -19 10 -136 78
-260 150 -417 241 -485 280 -615 355 -71 41 -155 90 -185 107 -231 133 -318
183 -335 193 -18 9 -50 -6 -220 -104z m380 -914 c149 -20 217 -37 353 -86 104
-37 230 -102 327 -167 519 -349 776 -985 645 -1597 -115 -538 -511 -977 -1030
-1144 -178 -57 -304 -75 -505 -71 -93 2 -183 6 -200 10 -16 3 -61 13 -100 21
-341 71 -682 289 -898 574 -262 347 -367 809 -281 1235 2 11 6 31 9 45 23 125
137 383 226 515 208 306 528 532 886 625 173 45 408 61 568 40z"/>
<path d="M2305 3861 c-48 -22 -78 -54 -94 -100 -7 -23 -11 -162 -11 -437 l0
-403 -409 -1 c-225 0 -420 -4 -434 -9 -31 -12 -86 -67 -99 -100 -7 -15 -12
-115 -13 -241 -1 -258 7 -289 95 -346 9 -5 200 -11 435 -14 l420 -5 5 -420 c6
-468 2 -445 77 -502 l36 -28 243 0 242 0 39 31 c80 65 77 47 78 509 l0 410
420 5 c292 3 426 9 440 17 32 18 63 55 78 93 18 46 16 450 -2 494 -15 36 -62
83 -97 97 -16 5 -189 9 -433 9 l-406 0 0 408 c-1 459 0 454 -78 516 l-39 31
-226 2 c-201 2 -232 0 -267 -16z"/>
</g>
</svg>
